<svg width="1413" height="800" viewBox="0 0 1413 800" fill="none" xmlns="http://www.w3.org/2000/svg">
<g opacity="0.25" clip-path="url(#clip0_12_2)">
<path d="M1303.5 -112.5L1416 -56.25V56.25L1303.5 0V-112.5Z" fill="#8A73FF"/>
<path d="M628.5 225L741 168.75L853.5 225L741 281.25L628.5 225Z" fill="#4F46E5"/>
<path d="M628.5 225L741 281.25V393.75L628.5 337.5V225Z" fill="#8A73FF"/>
<path d="M403.5 225L516 168.75L628.5 225L516 281.25L403.5 225Z" fill="#4F46E5"/>
<path d="M403.5 225L516 281.25V393.75L403.5 337.5V225Z" fill="#8A73FF"/>
<path d="M178.5 225L291 168.75L403.5 225L291 281.25L178.5 225Z" fill="#4F46E5"/>
<path d="M178.5 225L291 281.25V393.75L178.5 337.5V225Z" fill="#8A73FF"/>
<path d="M291 56.25L403.5 0L516 56.25L403.5 112.5L291 56.25Z" fill="#4F46E5"/>
<path d="M291 56.25L403.5 112.5V225L291 168.75V56.25Z" fill="#8A73FF"/>
<path d="M516 56.25L628.5 0L741 56.25L628.5 112.5L516 56.25Z" fill="#4F46E5"/>
<path d="M516 56.25L628.5 112.5V225L516 168.75V56.25Z" fill="#8A73FF"/>
<path d="M628.5 -112.5L741 -56.25V56.25L628.5 0V-112.5Z" fill="#8A73FF"/>
<path d="M403.5 -112.5L516 -56.25V56.25L403.5 0V-112.5Z" fill="#8A73FF"/>
<path d="M178.5 -112.5L291 -56.25V56.25L178.5 0V-112.5Z" fill="#8A73FF"/>
<path d="M66 56.25L178.5 0L291 56.25L178.5 112.5L66 56.25Z" fill="#4F46E5"/>
<path d="M66 56.25L178.5 112.5V225L66 168.75V56.25Z" fill="#8A73FF"/>
<path d="M853.5 -112.5L966 -56.25V56.25L853.5 0V-112.5Z" fill="#8A73FF"/>
<path d="M741 56.25L853.5 0L966 56.25L853.5 112.5L741 56.25Z" fill="#4F46E5"/>
<path d="M741 56.25L853.5 112.5V225L741 168.75V56.25Z" fill="#8A73FF"/>
<path d="M516 393.75L628.5 337.5L741 393.75L628.5 450L516 393.75Z" fill="#4F46E5"/>
<path d="M516 393.75L628.5 450V562.5L516 506.25V393.75Z" fill="#8A73FF"/>
<path d="M291 393.75L403.5 337.5L516 393.75L403.5 450L291 393.75Z" fill="#4F46E5"/>
<path d="M291 393.75L403.5 450V562.5L291 506.25V393.75Z" fill="#8A73FF"/>
<path d="M66 393.75L178.5 337.5L291 393.75L178.5 450L66 393.75Z" fill="#4F46E5"/>
<path d="M66 393.75L178.5 450V562.5L66 506.25V393.75Z" fill="#8A73FF"/>
<path d="M1078.5 -112.5L1191 -56.25V56.25L1078.5 0V-112.5Z" fill="#8A73FF"/>
<path d="M966 56.25L1078.5 0L1191 56.25L1078.5 112.5L966 56.25Z" fill="#4F46E5"/>
<path d="M966 56.25L1078.5 112.5V225L966 168.75V56.25Z" fill="#8A73FF"/>
<path d="M853.5 225L966 168.75L1078.5 225L966 281.25L853.5 225Z" fill="#4F46E5"/>
<path d="M853.5 225L966 281.25V393.75L853.5 337.5V225Z" fill="#8A73FF"/>
<path d="M741 393.75L853.5 337.5L966 393.75L853.5 450L741 393.75Z" fill="#4F46E5"/>
<path d="M741 393.75L853.5 450V562.5L741 506.25V393.75Z" fill="#8A73FF"/>
<path d="M628.5 562.5L741 506.25L853.5 562.5L741 618.75L628.5 562.5Z" fill="#4F46E5"/>
<path d="M628.5 562.5L741 618.75V731.25L628.5 675V562.5Z" fill="#8A73FF"/>
<path d="M403.5 562.5L516 506.25L628.5 562.5L516 618.75L403.5 562.5Z" fill="#4F46E5"/>
<path d="M403.5 562.5L516 618.75V731.25L403.5 675V562.5Z" fill="#8A73FF"/>
<path d="M178.5 562.5L291 506.25L403.5 562.5L291 618.75L178.5 562.5Z" fill="#4F46E5"/>
<path d="M178.5 562.5L291 618.75V731.25L178.5 675V562.5Z" fill="#8A73FF"/>
<path d="M1191 56.25L1303.5 0L1416 56.25L1303.5 112.5L1191 56.25Z" fill="#4F46E5"/>
<path d="M1191 56.25L1303.5 112.5V225L1191 168.75V56.25Z" fill="#8A73FF"/>
<path d="M1078.5 225L1191 168.75L1303.5 225L1191 281.25L1078.5 225Z" fill="#4F46E5"/>
<path d="M1078.5 225L1191 281.25V393.75L1078.5 337.5V225Z" fill="#8A73FF"/>
<path d="M966 393.75L1078.5 337.5L1191 393.75L1078.5 450L966 393.75Z" fill="#4F46E5"/>
<path d="M966 393.75L1078.5 450V562.5L966 506.25V393.75Z" fill="#8A73FF"/>
<path d="M853.5 562.5L966 506.25L1078.5 562.5L966 618.75L853.5 562.5Z" fill="#4F46E5"/>
<path d="M853.5 562.5L966 618.75V731.25L853.5 675V562.5Z" fill="#8A73FF"/>
<path d="M1078.5 562.5L1191 506.25L1303.5 562.5L1191 618.75L1078.5 562.5Z" fill="#4F46E5"/>
<path d="M1078.5 562.5L1191 618.75V731.25L1078.5 675V562.5Z" fill="#8A73FF"/>
<path d="M1191 393.75L1303.5 337.5L1416 393.75L1303.5 450L1191 393.75Z" fill="#4F46E5"/>
<path d="M1191 393.75L1303.5 450V562.5L1191 506.25V393.75Z" fill="#8A73FF"/>
<path d="M1303.5 225L1416 168.75L1528.5 225L1416 281.25L1303.5 225Z" fill="#4F46E5"/>
<path d="M1303.5 225L1416 281.25V393.75L1303.5 337.5V225Z" fill="#8A73FF"/>
<path d="M1303.5 562.5L1416 506.25L1528.5 562.5L1416 618.75L1303.5 562.5Z" fill="#4F46E5"/>
<path d="M1303.5 562.5L1416 618.75V731.25L1303.5 675V562.5Z" fill="#8A73FF"/>
<path d="M1191 731.25L1303.5 675L1416 731.25L1303.5 787.5L1191 731.25Z" fill="#4F46E5"/>
<path d="M1191 731.25L1303.5 787.5V900L1191 843.75V731.25Z" fill="#8A73FF"/>
<path d="M966 731.25L1078.5 675L1191 731.25L1078.5 787.5L966 731.25Z" fill="#4F46E5"/>
<path d="M966 731.25L1078.5 787.5V900L966 843.75V731.25Z" fill="#8A73FF"/>
<path d="M741 731.25L853.5 675L966 731.25L853.5 787.5L741 731.25Z" fill="#4F46E5"/>
<path d="M741 731.25L853.5 787.5V900L741 843.75V731.25Z" fill="#8A73FF"/>
<path d="M516 731.25L628.5 675L741 731.25L628.5 787.5L516 731.25Z" fill="#4F46E5"/>
<path d="M516 731.25L628.5 787.5V900L516 843.75V731.25Z" fill="#8A73FF"/>
<path d="M291 731.25L403.5 675L516 731.25L403.5 787.5L291 731.25Z" fill="#4F46E5"/>
<path d="M291 731.25L403.5 787.5V900L291 843.75V731.25Z" fill="#8A73FF"/>
<path d="M84.75 731.25L197.25 675L309.75 731.25L197.25 787.5L84.75 731.25Z" fill="#4F46E5"/>
<path d="M84.75 731.25L197.25 787.5V900L84.75 843.75V731.25Z" fill="#8A73FF"/>
<path d="M-27.75 562.5L84.75 506.25L197.25 562.5L84.75 618.75L-27.75 562.5Z" fill="#4F46E5"/>
<path d="M-27.75 562.5L84.75 618.75V731.25L-27.75 675V562.5Z" fill="#8A73FF"/>
<path d="M-27.75 225L84.75 168.75L197.25 225L84.75 281.25L-27.75 225Z" fill="#4F46E5"/>
<path d="M-27.75 225L84.75 281.25V393.75L-27.75 337.5V225Z" fill="#8A73FF"/>
<path d="M-140.25 56.25L-27.75 0L84.75 56.25L-27.75 112.5L-140.25 56.25Z" fill="#4F46E5"/>
<path d="M-140.25 393.75L-27.75 337.5L84.75 393.75L-27.75 450L-140.25 393.75Z" fill="#4F46E5"/>
<path d="M-140.25 731.25L-27.75 675L84.75 731.25L-27.75 787.5L-140.25 731.25Z" fill="#4F46E5"/>
</g>
<defs>
<clipPath id="clip0_12_2">
<rect width="1422" height="800" fill="white" transform="translate(-9)"/>
</clipPath>
</defs>
</svg>
