<svg width="90" height="21" viewBox="0 0 90 21" fill="none" xmlns="http://www.w3.org/2000/svg">
<path d="M12.7619 10.5381L13.0473 11.237L6.50116 13.9108L6.2157 13.2119L12.7619 10.5381ZM13.2947 9.50504L10.1547 1.81717C10.0069 1.45537 9.56341 1.28902 9.13624 1.42163L9.05094 1.45249L2.50476 4.12621C2.08116 4.29922 1.84477 4.71653 1.94667 5.08602L1.97194 5.15932L5.11197 12.8472C5.26963 13.2332 5.76378 13.3964 6.2157 13.2119L6.50116 13.9108C5.65371 14.2569 4.73236 13.9912 4.36075 13.3205L4.2937 13.1814L1.15367 5.49354C0.838365 4.72156 1.31546 3.79648 2.2193 3.42731L8.76549 0.753593L8.93556 0.692886C9.79013 0.427243 10.6773 0.759144 10.9729 1.48296L14.113 9.17082C14.4086 9.89464 14.0075 10.7527 13.2113 11.1613L13.0473 11.237L12.7619 10.5381C13.2138 10.3536 13.4524 9.89103 13.2947 9.50504Z" fill="#4F46E5"/>
<path d="M11.0048 10.6929L12.1547 11.6287L8.50475 13.1929L8.2193 12.494L11.0048 10.6929ZM12.5048 11.6929L12.1547 14.8172C12.0069 14.4554 11.5634 14.2891 11.1363 14.4217L11.051 14.4525L6.50838 8.40838C6.08478 8.5814 5.84838 8.9987 5.95028 9.36819L5.97556 9.44149L7.11557 12.1293C7.27322 12.5153 7.76738 12.6786 8.2193 12.494L8.50475 13.1929C7.11557 13.8669 7.50475 13.6929 6.36435 12.6026L6.2973 12.4635L5.15729 9.7757C4.84198 9.00373 5.31908 8.07865 6.22292 7.70949L10.7655 5.75365L10.9356 13.6929C11.7902 13.4273 12.7517 13.7287 13.0473 14.4525L14.113 17.1708C14.4086 17.8946 12.9509 11.2201 12.1547 11.6287L11.0048 10.6929C11.4567 10.5083 12.6624 12.0789 12.5048 11.6929Z" fill="white"/>
<path d="M7.93542 3.69318C8.78998 3.42754 9.67689 3.75941 9.97252 4.48322L10.6708 6.19318H9.71667L9.15514 4.81721C9.0074 4.45549 8.56367 4.28925 8.13659 4.4217L8.05065 4.45295L1.50475 7.1258C1.0812 7.2988 0.845319 7.7163 0.947134 8.08576L0.971548 8.159L4.00475 15.5838V16.9041C3.73198 16.7779 3.50518 16.58 3.3612 16.3201L3.29381 16.1815L0.154165 8.49397C-0.161142 7.72199 0.315756 6.79672 1.21959 6.42756L7.76549 3.75373L7.93542 3.69318ZM12.7489 13.7576C12.6002 13.9156 12.42 14.0541 12.2118 14.161L12.0477 14.2371L8.12096 15.8406L12.7489 13.7576Z" fill="#4F46E5"/>
<path d="M81.6466 20.6369L83.1346 17.3889L79.8866 9.43687H83.0866L84.7186 13.8369L86.3346 9.43687H89.5346L84.9106 20.6369H81.6466Z" fill="#4F46E5"/>
<path d="M76.7253 17.8369C74.5173 17.8369 73.4293 16.7969 73.4293 14.7009V12.0609H71.8933V10.8129L75.3333 7.29288H76.4693V9.43688H78.7253V11.9009H76.4693V14.2209C76.4693 14.9729 76.8053 15.3089 77.6213 15.3089C77.9893 15.3089 78.3893 15.2449 78.8213 15.1009V17.5489C78.0693 17.7409 77.3813 17.8369 76.7253 17.8369Z" fill="#4F46E5"/>
<path d="M67.1644 17.6929V12.0609H65.6284V9.43688H70.2044V17.6929H67.1644ZM66.9244 6.94088C66.9244 5.96488 67.6124 5.30888 68.6204 5.30888C69.6284 5.30888 70.3324 5.96488 70.3324 6.94088C70.3324 7.91688 69.6284 8.58888 68.6204 8.58888C67.6124 8.58888 66.9244 7.91688 66.9244 6.94088Z" fill="#4F46E5"/>
<path d="M55.3748 17.6929V9.43688H56.8948L57.7588 10.3649C58.3988 9.62888 59.3588 9.22888 60.4948 9.22888C62.7028 9.22888 64.1588 10.7009 64.1588 12.9729V17.6929H61.1188V13.2609C61.1188 12.3329 60.6228 11.7889 59.7748 11.7889C58.9268 11.7889 58.4148 12.3329 58.4148 13.2609V17.6929H55.3748Z" fill="#4F46E5"/>
<path d="M50.1019 17.6929V12.0609H48.5659V9.43688H53.1419V17.6929H50.1019ZM49.8619 6.94088C49.8619 5.96488 50.5499 5.30888 51.5579 5.30888C52.5659 5.30888 53.2699 5.96488 53.2699 6.94088C53.2699 7.91688 52.5659 8.58888 51.5579 8.58888C50.5499 8.58888 49.8619 7.91688 49.8619 6.94088Z" fill="#4F46E5"/>
<path d="M35.2269 9.00488C35.2269 6.87688 36.3789 5.69288 38.4749 5.69288C38.9709 5.69288 39.5469 5.77288 40.2509 5.90088V8.20488C39.8829 8.10888 39.5629 8.06088 39.2909 8.06088C38.5869 8.06088 38.2669 8.39688 38.2669 9.16488V9.45288H42.2349V9.00488C42.2349 6.87688 43.4189 5.69288 45.5789 5.69288C46.1069 5.69288 46.7469 5.77288 47.4349 5.90088V8.20488C47.0509 8.10888 46.6829 8.06088 46.3949 8.06088C45.6269 8.06088 45.2749 8.39688 45.2749 9.16488V9.45288H47.4029V12.0609H45.2749V17.6929H42.2349V12.0129H38.2669V17.6929H35.2269V12.0609H33.6909V9.43688H35.2269V9.00488Z" fill="#111827"/>
<path d="M26.7103 17.8689C24.3103 17.8689 22.6143 16.0769 22.6143 13.5649C22.6143 11.0369 24.3103 9.26088 26.7103 9.26088C27.8463 9.26088 28.8383 9.66088 29.5423 10.3489L30.3103 9.43688H31.9583V17.6929H30.3103L29.5423 16.7649C28.8383 17.4689 27.8463 17.8689 26.7103 17.8689ZM25.6223 13.5649C25.6223 14.6369 26.3103 15.3409 27.3663 15.3409C28.4223 15.3409 29.1103 14.6369 29.1103 13.5649C29.1103 12.4929 28.4223 11.7889 27.3663 11.7889C26.3103 11.7889 25.6223 12.4929 25.6223 13.5649Z" fill="#111827"/>
<path d="M19.1159 17.8369C16.9079 17.8369 15.8199 16.7969 15.8199 14.7009V12.0609H14.2839V10.8129L17.7239 7.29288H18.8599V9.43688H21.1159V11.9009H18.8599V14.2209C18.8599 14.9729 19.1959 15.3089 20.0119 15.3089C20.3799 15.3089 20.7799 15.2449 21.2119 15.1009V17.5489C20.4599 17.7409 19.7719 17.8369 19.1159 17.8369Z" fill="#111827"/>
<path d="M8.40084 17.9009C7.02484 17.9009 5.68084 17.6431 4.48083 17.0511V14.2689C5.60084 14.9089 7.08884 15.3409 8.25684 15.3409C9.21684 15.3409 9.74483 15.0369 9.74483 14.4449C9.74483 12.7489 4.54483 13.9489 4.54483 9.66088C4.54483 7.53288 6.04883 6.33288 8.76884 6.33288C10.0488 6.33288 11.2488 6.58888 12.5288 7.16488V9.77288C11.3768 9.21288 10.0808 8.87688 9.05684 8.87688C8.16084 8.87688 7.74484 9.13288 7.74484 9.67688C7.74484 11.4369 12.9608 10.1889 12.9608 14.4289C12.9608 16.6049 11.2808 17.9009 8.40084 17.9009Z" fill="#111827"/>
</svg>
