<svg width="206" height="25" viewBox="0 0 206 25" fill="none" xmlns="http://www.w3.org/2000/svg">
<path d="M31.12 24.096C30.928 24.288 30.672 24.096 30.672 23.808C30.704 19.424 30.928 15.008 30.768 10.624C30.736 8.96 30.512 7.296 30.032 5.696C29.712 4.608 29.264 3.52 28.496 2.656C28.144 2.272 27.664 1.92 27.152 1.792C26.576 1.632 25.936 1.728 25.392 1.92C24.4 2.24 23.472 2.912 22.8 3.712C22.096 4.576 21.552 5.6 21.168 6.656C21.456 7.936 21.488 9.248 21.552 10.56C21.616 12.32 21.648 14.048 21.584 15.808C21.52 17.152 21.392 18.464 21.392 19.776C21.392 20.032 21.392 20.928 21.264 21.152C21.104 21.44 20.656 21.504 20.304 21.536C19.536 21.568 18.704 21.6 17.936 21.472C17.712 21.44 16.304 21.28 16.08 21.248C15.856 21.216 15.504 21.184 15.504 20.96C15.504 19.936 15.76 13.504 15.76 12.48C15.792 10.176 15.728 7.808 15.28 5.536C15.056 4.448 14.672 3.296 13.904 2.464C13.712 2.24 13.456 2.048 13.168 1.952C12.944 1.888 12.72 1.856 12.464 1.888C11.376 1.984 10.32 2.688 9.52 3.424C8.368 4.544 7.472 5.92 6.704 7.328C6.704 12.832 5.872 17.856 6.352 23.808C6.384 24.192 5.872 24.128 5.488 24.128C4.048 24.096 2.64 24.192 1.2 24.064C1.104 24.064 0.656001 24.032 0.560001 24C0.112001 23.84 0.240001 22.944 0.240001 22.496C-0.0479991 16.992 -0.0479991 11.52 0.560001 5.312C0.624001 4.64 0.944001 1.664 1.2 1.024C1.392 0.639999 2.16 0.671999 2.576 0.671999C3.152 0.703998 6.032 0.735998 6.576 0.831998C6.64 0.863998 6.704 0.895998 6.768 0.895998C6.96 0.895998 6.96 1.152 6.96 1.344C6.992 1.76 6.8 4 6.736 4.416C6.736 4.64 6.704 5.792 6.704 5.984C7.568 4.64 8.528 3.328 9.808 2.368C10.448 1.856 11.184 1.504 11.984 1.312C13.104 1.056 14.256 0.863998 15.376 0.959999C16.304 1.024 17.296 1.152 18.064 1.632C19.472 2.528 20.464 4.128 20.912 5.728C21.52 4.384 22.32 3.04 23.504 2.176C24.464 1.472 25.68 0.927999 26.864 1.024C27.504 1.088 28.144 1.44 28.592 1.888C29.392 2.624 29.904 3.648 30.288 4.64C31.472 7.904 31.408 11.52 31.376 14.976C31.376 17.824 31.28 20.672 31.216 23.52C31.216 23.712 31.248 23.936 31.12 24.096Z" fill="white"/>
<path d="M41.6973 24.128C40.8333 24.096 36.6093 24.256 35.7773 24.064C35.6493 24.064 35.5533 24 35.4893 23.904C35.3932 23.776 35.3933 23.584 35.3613 23.424C35.2973 22.944 35.1693 20.16 35.1693 19.68C35.0413 16.256 35.1373 12.832 35.3613 9.408C35.3613 9.216 35.3932 8 35.3932 7.776C35.4252 6.08 35.4573 4.352 35.5853 2.656C35.6173 2.24 35.6493 1.824 35.7453 1.408C35.7773 1.088 36.2573 1.152 36.5773 1.184C37.1853 1.184 37.7933 1.216 38.4013 1.216C39.1373 1.184 39.9053 1.12 40.6413 1.152C40.9613 1.152 41.9852 1.152 42.2412 1.312C42.3372 1.28 42.4333 1.312 42.4653 1.44C42.6573 2.592 42.4973 8.352 42.4653 9.536C42.4013 13.696 42.7212 17.888 42.4972 22.048C42.4652 22.272 42.3373 23.424 42.3053 23.648C42.2413 23.872 42.0493 24.128 41.8253 24.064C41.7933 24.064 41.7292 24.128 41.6973 24.128Z" fill="white"/>
<path d="M51.732 24.096C50.004 24.032 48.276 24.16 46.58 24.16C46.388 24.16 46.228 24 46.228 23.808C46.324 19.968 46.612 16.16 46.74 12.32C46.836 8.768 46.772 5.184 46.612 1.632C46.612 1.504 46.548 0.959999 46.548 0.863998C46.548 0.639999 46.868 0.607999 47.092 0.607999C47.7 0.543998 50.836 0.543998 51.444 0.607999C51.572 0.639999 51.956 0.703998 52.052 0.799999C52.116 0.895998 52.084 1.216 52.084 1.344C52.212 3.008 52.276 4.704 52.308 6.368C52.98 5.312 53.748 4.256 54.708 3.424C55.668 2.624 56.852 1.984 58.1 1.696C59.284 1.408 60.692 1.6 61.748 2.272C63.06 3.072 64.084 4.416 64.692 5.824C65.652 7.968 65.812 10.4 65.844 12.736C65.908 15.424 65.876 18.08 65.748 20.768C65.748 21.056 65.62 22.912 65.588 23.232C65.588 23.328 65.556 23.456 65.492 23.552C65.204 23.84 64.756 23.52 64.916 23.168C65.108 21.792 65.204 14.528 65.172 13.12C65.172 11.712 65.076 10.336 64.884 8.928C64.66 7.36 64.116 5.792 63.188 4.512C62.644 3.744 61.94 3.104 61.14 2.656C60.404 2.272 59.508 2.112 58.676 2.24C57.396 2.464 56.148 3.072 55.156 3.936C53.972 4.96 53.076 6.304 52.276 7.68C52.18 10.976 52.084 14.272 52.052 17.568C52.02 19.552 52.02 21.568 52.084 23.552C52.084 23.648 52.148 23.936 52.084 24.032C52.02 24.096 51.828 24.096 51.732 24.096Z" fill="white"/>
<path d="M75.8848 24.128C75.0208 24.096 70.7968 24.256 69.9648 24.064C69.8368 24.064 69.7408 24 69.6768 23.904C69.5807 23.776 69.5808 23.584 69.5488 23.424C69.4848 22.944 69.3568 20.16 69.3568 19.68C69.2288 16.256 69.3248 12.832 69.5488 9.408C69.5488 9.216 69.5807 8 69.5807 7.776C69.6127 6.08 69.6448 4.352 69.7728 2.656C69.8048 2.24 69.8368 1.824 69.9328 1.408C69.9648 1.088 70.4447 1.152 70.7647 1.184C71.3727 1.184 71.9808 1.216 72.5888 1.216C73.3248 1.184 74.0928 1.12 74.8288 1.152C75.1488 1.152 76.1727 1.152 76.4287 1.312C76.5247 1.28 76.6207 1.312 76.6527 1.44C76.8447 2.592 76.6847 8.352 76.6527 9.536C76.5887 13.696 76.9088 17.888 76.6848 22.048C76.6528 22.272 76.5248 23.424 76.4928 23.648C76.4288 23.872 76.2367 24.128 76.0127 24.064C75.9807 24.064 75.9167 24.128 75.8848 24.128Z" fill="white"/>
<path d="M86.4635 24.064C85.4715 24.32 84.4155 24.352 83.4235 24.256C82.8475 24.224 82.3035 24.256 81.7595 24.192C81.3755 24.16 80.7675 24.096 80.7355 23.744C80.7035 23.168 80.7995 20.064 80.7995 19.488C80.8315 18.272 81.0555 10.784 81.0555 9.536C81.0875 6.848 81.0555 4.128 80.9915 1.408C80.9915 1.408 80.9915 1.312 80.9915 1.28C80.9915 0.767999 81.7595 0.959999 82.3035 0.959999C83.0075 0.991998 87.2315 0.735998 87.9675 0.735998C89.9515 0.735998 92.1275 1.344 93.6635 2.624C94.8475 3.616 95.6155 5.12 95.9355 6.624C96.3835 8.896 96.2235 11.552 94.9755 13.504C94.4635 14.336 93.6955 15.04 92.9275 15.68C91.9355 16.512 90.7515 17.184 89.5035 17.536C88.5435 17.824 87.5835 18.048 86.5915 18.176C86.5915 19.072 86.6235 22.88 86.9435 23.744C87.0075 23.968 86.6875 24.032 86.4635 24.064ZM86.5915 5.312C86.5275 9.376 86.5275 13.44 86.5915 17.536C88.4475 17.28 90.3675 16.736 91.9035 15.648C93.3115 14.656 94.7195 13.248 95.1675 11.584C95.6475 9.856 95.6155 7.904 95.1675 6.176C94.8475 4.992 94.1755 3.872 93.2475 3.136C92.2235 2.272 90.8795 1.76 89.5675 1.504C88.5755 1.344 87.5515 1.376 86.5595 1.408C86.6555 1.984 86.6235 4.768 86.5915 5.312Z" fill="white"/>
<path d="M112.452 23.904C112.708 24.32 112.132 24.64 111.908 24.224C110.948 22.56 109.828 20.992 108.548 19.584C107.492 18.432 106.116 17.472 104.644 16.928C104.644 17.792 104.644 23.072 104.676 23.968C104.676 24.096 104.58 24.192 104.452 24.128C104.292 24.192 103.62 24.16 103.46 24.16C102.532 24.192 101.572 24.224 100.644 24.224C100.132 24.224 99.6203 24.192 99.1403 24.192C98.9803 24.192 98.8843 23.968 98.8843 23.84C98.9803 20.896 99.2042 17.984 99.2682 15.04C99.3642 11.968 99.3323 8.864 99.2363 5.792C99.2043 4.704 99.1723 3.584 99.0123 2.464C98.9803 2.272 98.8842 2.048 98.9482 1.856C98.9802 1.792 99.0763 1.76 99.1083 1.664C99.1723 1.536 99.3003 1.44 99.4603 1.472C99.6523 1.504 100.484 1.408 100.676 1.408C102.436 1.344 104.164 1.28 105.924 1.344C106.916 1.376 107.94 1.536 108.868 1.952C109.572 2.272 110.244 2.752 110.788 3.328C112.324 5.024 113.252 7.616 112.932 9.888C112.772 11.136 112.196 12.352 111.396 13.312C110.788 14.08 109.924 14.656 109.028 15.104C107.684 15.744 106.148 16.032 104.644 16.224C104.676 16.224 104.644 16.256 104.676 16.256C106.436 16.832 108.068 18.048 109.284 19.456C110.468 20.832 111.556 22.336 112.452 23.904ZM104.644 11.424C104.644 12.8 104.676 14.176 104.644 15.584C105.956 15.392 107.3 15.168 108.516 14.624C109.22 14.336 109.924 13.888 110.5 13.344C111.556 12.352 112.196 10.848 112.356 9.408C112.484 7.968 112.004 6.464 111.3 5.184C110.756 4.192 109.988 3.232 108.996 2.72C107.652 2.016 106.02 1.984 104.516 1.984C104.58 2.72 104.676 6.912 104.676 7.68C104.708 8.928 104.644 10.176 104.644 11.424Z" fill="white"/>
<path d="M127.407 23.52C125.839 24.384 123.823 24.704 122.095 24.224C121.327 24 120.527 23.648 119.855 23.168C118.511 22.24 117.423 20.864 116.687 19.392C115.567 17.056 115.055 14.4 115.247 11.776C115.471 8.928 116.431 5.952 118.223 3.712C119.279 2.4 120.719 1.28 122.319 0.703998C123.855 0.159998 125.711 0.191999 127.215 0.831998C128.335 1.312 129.359 2.016 130.159 2.912C131.471 4.352 132.399 6.208 132.847 8.096C133.487 10.688 133.487 13.504 132.783 16.064C132.367 17.504 131.759 18.944 130.927 20.192C130.031 21.536 128.847 22.752 127.407 23.52ZM124.815 23.04C126.671 23.808 128.687 22.112 129.839 20.64C130.991 19.168 131.791 17.408 132.239 15.584C132.879 12.864 132.847 9.856 131.919 7.2C131.535 6.08 130.991 4.992 130.287 4.032C128.559 1.728 126.127 0.159997 124.367 3.68C123.727 4.896 123.279 6.176 122.927 7.52C122.255 9.984 121.935 12.544 121.903 15.104C121.871 16.992 122.063 18.976 122.767 20.736C123.151 21.664 123.855 22.688 124.815 23.04Z" fill="white"/>
<path d="M148.357 21.504C144.997 24.96 139.365 24.832 136.517 20.992C135.749 19.968 135.141 18.72 135.109 17.44C135.109 17.344 135.109 17.248 135.109 17.152C135.173 16.736 135.749 16.832 135.749 17.28C135.781 18.144 136.069 19.008 136.485 19.776C137.285 21.152 138.597 22.368 140.101 22.88C140.965 23.168 141.989 23.232 142.789 22.848C143.717 22.4 144.357 21.376 144.709 20.416C145.253 18.88 145.413 17.184 145.477 15.552C145.637 13.056 145.701 10.528 145.701 8C145.669 6.016 145.605 4.032 145.349 2.08C145.317 1.792 145.477 1.44 145.733 1.28C146.085 1.024 147.525 1.12 147.973 1.12C149.093 1.12 150.213 1.12 151.333 1.088C152.101 1.056 151.813 2.112 151.813 2.88C151.845 4.608 151.717 13.088 151.397 14.784C150.949 17.216 150.085 19.744 148.357 21.504Z" fill="white"/>
<path d="M168.993 23.008C166.017 23.968 162.753 24.096 159.649 23.744C158.689 23.616 157.665 23.36 156.897 22.72C156.161 22.144 155.681 21.216 155.489 20.288C155.201 19.104 155.136 17.856 155.104 16.608C155.008 14.368 155.008 12.128 155.136 9.856C155.264 7.552 155.488 5.248 155.584 2.912C155.616 2.752 155.809 2.048 155.873 1.888C156.001 1.568 156.193 1.408 156.513 1.28C157.249 1.024 158.049 0.959999 158.817 0.959999C160.161 0.927999 166.817 1.088 168.129 1.312C168.577 1.408 168.448 2.016 168.032 1.952C167.296 1.856 163.392 1.664 162.688 1.664C162.496 1.632 162.305 1.6 162.145 1.696C161.697 1.92 161.249 3.072 161.153 3.552C160.705 5.376 160.704 7.232 160.64 9.088C162.688 9.088 164.736 9.088 166.752 9.088C167.232 9.088 167.232 9.728 166.752 9.728C164.704 9.728 162.656 9.728 160.608 9.728C160.544 12.608 160.545 15.52 160.737 18.4C160.833 19.52 160.928 20.704 161.28 21.76C161.408 22.208 161.793 22.528 162.177 22.784C162.433 22.944 163.329 23.264 163.617 23.232C164.673 23.2 165.728 23.136 166.752 22.944C167.456 22.816 168.16 22.592 168.832 22.4C169.248 22.272 169.441 22.88 168.993 23.008Z" fill="white"/>
<path d="M181.78 23.808C179.38 24.256 176.564 23.424 174.676 21.856C173.044 20.512 171.924 18.496 171.38 16.448C170.58 13.536 170.964 10.208 172.212 7.456C172.628 6.528 173.14 5.6 173.812 4.8C174.964 3.36 176.66 2.272 178.42 1.76C180.34 1.184 182.676 1.248 184.404 2.24C185.076 2.624 185.652 3.136 186.1 3.744C186.356 4.064 187.028 5.216 187.06 5.6C187.092 6.016 186.548 6.048 186.388 5.632C186.164 4.96 185.812 4.32 185.3 3.776C183.572 1.76 181.46 1.664 179.988 4.288C178.868 6.368 178.548 8.8 178.388 11.136C178.26 13.536 178.292 15.936 178.644 18.272C178.804 19.424 179.028 20.64 179.636 21.632C181.492 24.352 184.692 22.336 186.26 20.288C186.708 19.68 186.964 18.944 187.22 18.24C187.252 18.208 187.316 17.984 187.316 17.952C187.508 17.568 188.052 17.824 187.924 18.208C187.572 19.2 187.156 20.192 186.484 20.992C185.332 22.4 183.572 23.488 181.78 23.808Z" fill="white"/>
<path d="M197.287 24.192C196.903 24.192 195.335 24.096 194.951 23.968C194.215 23.744 194.791 22.336 194.823 21.568C194.919 19.744 195.271 9.824 195.175 8C195.143 7.136 194.888 2.944 194.696 2.112C193.8 2.112 189.48 2.08 188.584 2.272C188.072 2.4 187.848 1.824 188.36 1.664C188.904 1.504 191.368 1.472 191.944 1.472C194.248 1.44 196.552 1.472 198.856 1.472C200.264 1.472 201.672 1.376 203.08 1.44C203.464 1.44 204.712 1.472 205.032 1.696C205.352 1.92 205.095 2.336 204.711 2.272C203.271 2.016 201.767 2.08 200.263 2.112C200.935 8.352 201 14.656 201.192 20.96C201.224 21.888 201.256 23.616 200.36 23.936C199.912 24.096 197.799 24.192 197.287 24.192Z" fill="white"/>
</svg>
